<?xml version="1.0" encoding="UTF-8"?>
<svg width="184px" height="30px" viewBox="0 0 184 30" version="1.1" xmlns="http://www.w3.org/2000/svg" xmlns:xlink="http://www.w3.org/1999/xlink">
    <title>画板</title>
    <defs>
        <polygon id="path-1" points="0.8275 0.729 30.1485 0.729 30.1485 15.3533 0.8275 15.3533"></polygon>
        <polygon id="path-3" points="0.0006 0.729 20.1496 0.729 20.1496 15.3539 0.0006 15.3539"></polygon>
    </defs>
    <g id="画板" stroke="none" stroke-width="1" fill="none" fill-rule="evenodd">
        <g id="编组" transform="translate(1.000000, -0.500000)">
            <path d="M23.866,7.4219 C26.309,9.3269 27.883,12.2909 27.887,15.6249 L29.32,15.6249 C29.318,12.0319 28.016,8.7439 25.862,6.1979 C25.149,6.5319 24.48,6.9429 23.866,7.4219" id="Fill-1" fill="#2E7EEE"></path>
            <g transform="translate(12.000000, 0.271500)">
                <mask id="mask-2" fill="white">
                    <use xlink:href="#path-1"></use>
                </mask>
                <g id="Clip-4"></g>
                <path d="M6.5325,3.7783 C6.0605,4.1423 5.6105,4.5353 5.1865,4.9543 C2.4985,7.6043 0.8315,11.2843 0.8275,15.3533 L7.8455,15.3533 C7.8495,12.0193 9.4225,9.0553 11.8655,7.1503 C12.4805,6.6723 13.1485,6.2603 13.8615,5.9263 C15.2035,5.2993 16.7005,4.9473 18.2805,4.9473 C24.0395,4.9473 28.7085,9.6053 28.7145,15.3533 L30.1485,15.3533 C30.1415,7.2753 23.5815,0.7283 15.4885,0.7283 C13.1875,0.7283 11.0115,1.2583 9.0745,2.2013 C8.8935,2.2893 8.7155,2.3813 8.5385,2.4753 C8.1855,2.6663 7.8425,2.8703 7.5075,3.0873 C7.1725,3.3043 6.8475,3.5353 6.5325,3.7783" id="Fill-3" fill="#2E7EEE" mask="url(#mask-2)"></path>
            </g>
            <g transform="translate(0.000000, 0.271500)">
                <mask id="mask-4" fill="white">
                    <use xlink:href="#path-3"></use>
                </mask>
                <g id="Clip-6"></g>
                <path d="M20.1496,1.7949 C18.4536,1.1099 16.6026,0.7289 14.6596,0.7289 C6.5666,0.7289 0.0056,7.2749 0.0006,15.3539 L7.0176,15.3539 C7.0236,10.0939 10.9346,5.7519 16.0106,5.0519 C16.2126,4.8279 16.4196,4.6079 16.6356,4.3959 C17.6836,3.3619 18.8626,2.4899 20.1496,1.7949" id="Fill-5" fill="#2E7EEE" mask="url(#mask-4)"></path>
            </g>
            <path d="M18.5325,4.0498 C18.8475,3.8068 19.1725,3.5758 19.5075,3.3588 C19.1725,3.5758 18.8475,3.8068 18.5325,4.0498" id="Fill-7" fill="#2E7EEE"></path>
            <path d="M14.6428,30.2715 C16.6388,30.2715 18.5408,29.8735 20.2758,29.1535 L9.0128,29.1535 C10.7468,29.8735 12.6478,30.2715 14.6428,30.2715" id="Fill-9" fill="#2E7EEE"></path>
            <path d="M7.5237,18.918 L0.3377,18.918 C0.4677,19.48 0.6307,20.028 0.8227,20.564 L8.2377,20.564 C7.9547,20.04 7.7137,19.49 7.5237,18.918" id="Fill-11" fill="#2E7EEE"></path>
            <path d="M18.6399,27.3262 L5.8159,27.3262 C6.3509,27.7272 6.9129,28.0962 7.5009,28.4232 L20.3279,28.4232 C19.7399,28.0952 19.1759,27.7282 18.6399,27.3262" id="Fill-13" fill="#2E7EEE"></path>
            <path d="M8.6721,21.2949 L1.1061,21.2949 C1.3451,21.8619 1.6191,22.4109 1.9241,22.9399 L9.9961,22.9399 C9.5011,22.4389 9.0581,21.8869 8.6721,21.2949" id="Fill-15" fill="#2E7EEE"></path>
            <path d="M17.1496,26.044 C16.0806,26.015 15.0526,25.824 14.0866,25.498 L3.8046,25.498 C4.1566,25.883 4.5276,26.25 4.9196,26.595 L17.7446,26.595 C17.5416,26.416 17.3416,26.233 17.1496,26.044" id="Fill-17" fill="#2E7EEE"></path>
            <path d="M10.7971,23.67 L2.3801,23.67 C2.6291,24.049 2.8961,24.415 3.1781,24.768 L12.4191,24.768 C11.8431,24.452 11.3001,24.084 10.7971,23.67" id="Fill-19" fill="#2E7EEE"></path>
            <path d="M27.362,22.9395 C27.668,22.4115 27.941,21.8625 28.179,21.2945 L26.207,21.2945 C25.821,21.8875 25.376,22.4385 24.881,22.9395 L27.362,22.9395 Z" id="Fill-21" fill="#2E7EEE"></path>
            <path d="M23.8508,23.8555 C24.2888,24.1955 24.7548,24.4995 25.2438,24.7675 L26.1108,24.7675 C26.3938,24.4155 26.6608,24.0485 26.9098,23.6695 L24.0808,23.6695 C24.0048,23.7325 23.9288,23.7945 23.8508,23.8555" id="Fill-23" fill="#2E7EEE"></path>
            <path d="M28.948,18.918 L27.355,18.918 C27.164,19.49 26.924,20.04 26.641,20.564 L28.465,20.564 C28.656,20.028 28.819,19.48 28.948,18.918" id="Fill-25" fill="#2E7EEE"></path>
            <path d="M35.2864,24.7676 L38.9314,24.7676 C39.2144,24.4146 39.4804,24.0486 39.7304,23.6696 L36.9064,23.6696 C36.4034,24.0836 35.8614,24.4526 35.2864,24.7676" id="Fill-27" fill="#2E7EEE"></path>
            <path d="M20.3284,28.4229 L34.6084,28.4229 C35.1974,28.0959 35.7594,27.7279 36.2934,27.3259 L18.6404,27.3259 C19.1754,27.7289 19.7394,28.0949 20.3284,28.4229" id="Fill-29" fill="#2E7EEE"></path>
            <path d="M37.7063,22.9395 L40.1853,22.9395 C40.4913,22.4115 40.7653,21.8625 41.0033,21.2945 L39.0303,21.2945 C38.6443,21.8865 38.2013,22.4385 37.7063,22.9395" id="Fill-31" fill="#2E7EEE"></path>
            <path d="M30.2629,26.0508 C29.0869,26.0508 27.9569,25.8558 26.9029,25.4978 L16.6259,25.4978 C16.7969,25.6838 16.9699,25.8668 17.1499,26.0438 C17.3419,26.2338 17.5419,26.4158 17.7439,26.5948 L37.1909,26.5948 C37.5819,26.2498 37.9529,25.8828 38.3049,25.4978 L33.6269,25.4978 C32.5709,25.8568 31.4399,26.0508 30.2629,26.0508" id="Fill-33" fill="#2E7EEE"></path>
            <path d="M27.4665,30.2715 C29.4625,30.2715 31.3635,29.8735 33.0975,29.1535 L21.8345,29.1535 C23.5695,29.8735 25.4705,30.2715 27.4665,30.2715" id="Fill-35" fill="#2E7EEE"></path>
            <path d="M23.6208,23.67 L15.1988,23.67 C15.4488,24.049 15.7168,24.414 15.9998,24.768 L25.2438,24.768 C24.7548,24.499 24.2888,24.195 23.8508,23.856 C23.7728,23.795 23.6968,23.732 23.6208,23.67" id="Fill-37" fill="#2E7EEE"></path>
            <path d="M20.3474,18.918 L13.1614,18.918 C13.2914,19.48 13.4544,20.028 13.6464,20.564 L21.0614,20.564 C20.7784,20.04 20.5374,19.49 20.3474,18.918" id="Fill-39" fill="#2E7EEE"></path>
            <path d="M22.821,22.9395 C22.326,22.4385 21.881,21.8875 21.495,21.2945 L13.93,21.2945 C14.169,21.8625 14.443,22.4115 14.749,22.9395 L22.821,22.9395 Z" id="Fill-41" fill="#2E7EEE"></path>
            <path d="M41.7717,18.918 L40.1787,18.918 C39.9877,19.49 39.7477,20.04 39.4647,20.564 L41.2867,20.564 C41.4787,20.028 41.6427,19.48 41.7717,18.918" id="Fill-43" fill="#2E7EEE"></path>
            <path d="M168.633,6.9492 C168.633,7.2602 168.412,7.5192 168.133,7.5192 L165.383,7.5192 C165.103,7.5192 164.883,7.2602 164.883,6.9492 L164.883,5.8892 C164.883,5.5802 165.103,5.3192 165.383,5.3192 L168.133,5.3192 C168.412,5.3192 168.633,5.5802 168.633,5.8892 L168.633,6.9492 Z M168.633,11.0802 C168.633,11.3992 168.412,11.6392 168.133,11.6392 L165.383,11.6392 C165.103,11.6392 164.883,11.3992 164.883,11.0802 L164.883,10.0292 C164.883,9.7102 165.103,9.4602 165.383,9.4602 L168.133,9.4602 C168.412,9.4602 168.633,9.7102 168.633,10.0292 L168.633,11.0802 Z M172.943,10.0292 C172.943,9.7102 173.162,9.4602 173.443,9.4602 L176.193,9.4602 C176.463,9.4602 176.693,9.7102 176.693,10.0292 L176.693,11.0802 C176.693,11.3992 176.463,11.6392 176.193,11.6392 L173.443,11.6392 C173.162,11.6392 172.943,11.3992 172.943,11.0802 L172.943,10.0292 Z M172.943,5.8892 C172.943,5.5802 173.162,5.3192 173.443,5.3192 L176.193,5.3192 C176.463,5.3192 176.693,5.5802 176.693,5.8892 L176.693,6.9492 C176.693,7.2602 176.463,7.5192 176.193,7.5192 L173.443,7.5192 C173.162,7.5192 172.943,7.2602 172.943,6.9492 L172.943,5.8892 Z M181.572,14.9702 L172.943,14.9702 L172.943,13.5902 L179.992,13.5902 C180.553,13.5902 180.992,13.0802 180.992,12.4602 L180.992,4.5102 C180.992,3.8892 180.553,3.3802 179.992,3.3802 L161.582,3.3802 C161.023,3.3802 160.582,3.8892 160.582,4.5102 L160.582,12.4602 C160.582,13.0802 161.023,13.5902 161.582,13.5902 L168.633,13.5902 L168.633,14.9702 L160.003,14.9702 C159.733,14.9702 159.503,15.2202 159.503,15.5292 L159.503,16.3492 C159.503,16.6492 159.733,16.9092 160.003,16.9092 L167.633,16.9092 C168.183,16.9092 168.633,17.4202 168.633,18.0402 L168.633,27.9202 C168.633,28.4702 169.072,28.9202 169.633,28.9202 L171.943,28.9202 C172.492,28.9202 172.943,28.4702 172.943,27.9202 L172.943,18.0402 C172.943,17.4202 173.383,16.9092 173.943,16.9092 L181.572,16.9092 C181.843,16.9092 182.072,16.6492 182.072,16.3492 L182.072,15.5292 C182.072,15.2202 181.843,14.9702 181.572,14.9702 L181.572,14.9702 Z M94.612,9.4602 L93.383,9.4602 C92.832,9.4602 92.383,9.9702 92.383,10.5902 L92.383,14.3892 L95.612,14.0802 L95.612,10.5902 C95.612,9.9702 95.162,9.4602 94.612,9.4602 L94.612,9.4602 Z M92.383,16.2692 L92.383,25.7602 C92.383,26.3802 92.832,26.8892 93.383,26.8892 L94.612,26.8892 C95.162,26.8892 95.612,26.3802 95.612,25.7602 L95.612,16.2102 L92.383,16.2692 Z M74.733,26.3802 C74.733,26.6892 74.513,26.9392 74.233,26.9392 L71.362,26.9392 C71.083,26.9392 70.862,26.6892 70.862,26.3802 L70.862,22.4092 C70.862,22.0992 71.083,21.8402 71.362,21.8402 L74.233,21.8402 C74.513,21.8402 74.733,22.0992 74.733,22.4092 L74.733,26.3802 Z M66.983,26.3802 C66.983,26.6892 66.763,26.9392 66.483,26.9392 L63.612,26.9392 C63.333,26.9392 63.112,26.6892 63.112,26.3802 L63.112,22.4092 C63.112,22.0992 63.333,21.8402 63.612,21.8402 L66.483,21.8402 C66.763,21.8402 66.983,22.0992 66.983,22.4092 L66.983,26.3802 Z M59.233,26.3802 C59.233,26.6892 59.013,26.9392 58.733,26.9392 L55.862,26.9392 C55.583,26.9392 55.362,26.6892 55.362,26.3802 L55.362,22.4092 C55.362,22.0992 55.583,21.8402 55.862,21.8402 L58.733,21.8402 C59.013,21.8402 59.233,22.0992 59.233,22.4092 L59.233,26.3802 Z M80.263,26.9392 L79.112,26.9392 C78.833,26.9392 78.612,26.6892 78.612,26.3802 L78.612,21.0402 C78.612,20.4092 78.163,19.9092 77.612,19.9092 L52.483,19.9092 C51.933,19.9092 51.483,20.4092 51.483,21.0402 L51.483,26.3802 C51.483,26.6892 51.263,26.9392 50.983,26.9392 L49.833,26.9392 C49.553,26.9392 49.333,27.1992 49.333,27.5102 L49.333,28.3192 C49.333,28.6302 49.553,28.8892 49.833,28.8892 L80.263,28.8892 C80.543,28.8892 80.763,28.6302 80.763,28.3192 L80.763,27.5102 C80.763,27.1992 80.543,26.9392 80.263,26.9392 L80.263,26.9392 Z M153.263,16.2692 L153.162,27.7692 C153.153,28.4092 153.603,28.9202 154.162,28.9202 L156.612,28.9202 C157.162,28.9202 157.612,28.4092 157.612,27.7902 L157.612,16.1992 L153.263,16.2692 Z M157.112,9.4702 L151.133,9.4702 C150.862,9.4702 150.633,9.7292 150.633,10.0402 L150.633,10.8492 C150.633,11.1702 150.862,11.4202 151.133,11.4202 L152.803,11.4202 C153.082,11.4202 153.303,11.6792 153.303,11.9792 L153.282,14.3992 L157.612,13.9792 L157.612,10.0402 C157.612,9.7292 157.383,9.4702 157.112,9.4702 L157.112,9.4702 Z M145.313,26.9392 L142.403,17.9792 C142.263,17.5292 141.883,17.2292 141.463,17.2292 L139.293,17.2292 C138.593,17.2292 138.112,18.0192 138.353,18.7602 L140.513,25.4292 C140.753,26.1592 140.273,26.9392 139.572,26.9392 L125.883,26.9392 C125.193,26.9392 124.713,26.1702 124.943,25.4392 L127.003,18.7902 L122.683,18.8592 L120.173,26.9392 L120.032,27.4202 C119.832,28.1392 120.313,28.8892 120.992,28.8892 L144.492,28.8892 C145.162,28.8892 145.643,28.1492 145.443,27.4202 L145.313,26.9392 Z M146.843,11.8892 L117.633,11.8892 C117.362,11.8892 117.133,12.1392 117.133,12.4602 L117.133,13.2692 C117.133,13.5802 117.362,13.8402 117.633,13.8402 L122.832,13.8402 C123.523,13.8402 124.003,14.6092 123.773,15.3402 L123.313,16.8192 L127.742,16.4202 L128.313,14.5802 C128.452,14.1302 128.832,13.8402 129.263,13.8402 L146.843,13.8402 C147.122,13.8402 147.343,13.5802 147.343,13.2692 L147.343,12.4602 C147.343,12.1392 147.122,11.8892 146.843,11.8892 L146.843,11.8892 Z M85.563,9.4602 L84.342,9.4602 C83.783,9.4602 83.342,9.9702 83.342,10.5902 L83.342,15.2692 L86.563,14.9702 L86.563,10.5902 C86.563,9.9702 86.112,9.4602 85.563,9.4602 L85.563,9.4602 Z M83.342,16.4202 L83.342,25.7602 C83.342,26.3802 83.783,26.8892 84.342,26.8892 L85.563,26.8892 C86.112,26.8892 86.563,26.3802 86.563,25.7602 L86.563,16.3592 L83.342,16.4202 Z M114.293,16.1702 L108.093,10.8802 L114.233,10.8802 C114.503,10.8802 114.733,10.6302 114.733,10.3192 L114.733,9.5002 C114.733,9.1992 114.503,8.9392 114.233,8.9392 L108.923,8.9392 C108.372,8.9392 107.923,8.4292 107.923,7.8092 L107.923,6.6792 C107.923,6.0502 108.372,5.5502 108.923,5.5502 L112.843,5.5502 C113.112,5.5502 113.343,5.2902 113.343,4.9792 L113.343,4.1702 C113.343,3.8492 113.112,3.5992 112.843,3.5992 L99.072,3.5992 C98.803,3.5992 98.572,3.8492 98.572,4.1702 L98.572,4.9792 C98.572,5.2902 98.803,5.5502 99.072,5.5502 L102.943,5.5502 C103.492,5.5502 103.943,6.0502 103.943,6.6792 L103.943,7.8092 C103.943,8.4292 103.492,8.9392 102.943,8.9392 L97.612,8.9392 C97.343,8.9392 97.112,9.1992 97.112,9.5002 L97.112,10.3192 C97.112,10.6302 97.343,10.8802 97.612,10.8802 L104.133,10.8802 L97.593,16.5102 C97.293,16.7102 97.112,17.0692 97.112,17.4602 L97.112,18.7692 L98.973,17.3992 C99.303,17.1492 99.753,17.4292 99.742,17.8892 L99.572,27.7242 C99.563,28.3642 100.013,28.8852 100.572,28.8852 L102.032,28.8852 C102.563,28.8852 103.013,28.4042 103.032,27.7952 L103.463,14.6492 L104.032,14.2292 L105.862,12.9702 C106.023,12.8492 106.223,12.8492 106.383,12.9702 L108.742,14.6302 L109.173,14.9492 L109.173,27.7602 C109.173,28.3802 109.622,28.8892 110.173,28.8892 L111.403,28.8892 C111.952,28.8892 112.403,28.3802 112.403,27.7602 L112.403,17.9492 C112.403,17.5192 112.813,17.2502 113.143,17.4602 L114.773,18.4392 L114.773,17.1392 C114.773,16.7392 114.593,16.3702 114.293,16.1702 L114.293,16.1702 Z M95.112,6.0592 L92.093,6.0592 C91.543,6.0592 91.093,5.5502 91.093,4.9292 L91.093,3.3002 C91.093,2.6792 90.643,2.1702 90.093,2.1702 L88.862,2.1702 C88.313,2.1702 87.862,2.6792 87.862,3.3002 L87.862,4.9292 C87.862,5.5502 87.413,6.0592 86.862,6.0592 L83.842,6.0592 C83.563,6.0592 83.342,6.3092 83.342,6.6202 L83.342,7.4392 C83.342,7.7392 83.563,8.0002 83.842,8.0002 L86.862,8.0002 C87.413,8.0002 87.862,8.5002 87.862,9.1302 L87.862,14.8302 L91.093,14.5192 L91.093,9.1302 C91.093,8.5002 91.543,8.0002 92.093,8.0002 L95.112,8.0002 C95.383,8.0002 95.612,7.7392 95.612,7.4392 L95.612,6.6202 C95.612,6.3092 95.383,6.0592 95.112,6.0592 L95.112,6.0592 Z M87.862,16.3402 L87.862,27.7392 C87.862,28.3702 88.313,28.8702 88.862,28.8702 L90.093,28.8702 C90.643,28.8702 91.093,28.3702 91.093,27.7392 L91.093,16.2902 L87.862,16.3402 Z M60.813,9.9392 L58.503,9.9392 C57.953,9.9392 57.503,10.4492 57.503,11.0692 L57.503,17.5592 C57.503,18.1792 57.953,18.6892 58.503,18.6892 L60.813,18.6892 C61.362,18.6892 61.813,18.1792 61.813,17.5592 L61.813,11.0692 C61.813,10.4492 61.362,9.9392 60.813,9.9392 L60.813,9.9392 Z M65.043,16.2902 L65.043,17.7502 L79.153,17.3002 L79.153,15.8492 L65.043,16.2902 Z M54.353,10.9492 L52.043,10.9492 C51.493,10.9492 51.043,11.4602 51.043,12.0902 L51.043,16.5902 C51.043,17.2102 51.493,17.7202 52.043,17.7202 L54.353,17.7202 C54.903,17.7202 55.353,17.2102 55.353,16.5902 L55.353,12.0902 C55.353,11.4602 54.903,10.9492 54.353,10.9492 L54.353,10.9492 Z M71.183,13.1092 C70.173,13.1302 69.353,12.2102 69.353,11.0692 C69.353,10.4492 68.913,9.9392 68.353,9.9392 L66.043,9.9392 C65.483,9.9392 65.043,10.4392 65.043,11.0692 L65.043,15.3192 L79.153,14.4702 L79.153,13.0102 L71.183,13.1092 Z M80.263,4.5992 L76.163,4.5992 C75.612,4.5992 75.163,4.0902 75.163,3.4702 L75.163,3.3002 C75.163,2.6792 74.713,2.1702 74.163,2.1702 L71.853,2.1702 C71.303,2.1702 70.853,2.6792 70.853,3.3002 C70.853,4.0192 70.342,4.5992 69.713,4.5992 L60.223,4.5992 C59.673,4.5992 59.223,4.0902 59.223,3.4702 L59.223,3.3002 C59.223,2.6792 58.783,2.1702 58.223,2.1702 L55.923,2.1702 C55.362,2.1702 54.923,2.6792 54.923,3.3002 C54.923,4.0192 54.403,4.5992 53.773,4.5992 L49.822,4.5992 C49.543,4.5992 49.322,4.8492 49.322,5.1702 L49.322,5.9792 C49.322,6.2902 49.543,6.5502 49.822,6.5502 L53.923,6.5502 C54.473,6.5502 54.923,7.0402 54.923,7.6792 L54.923,7.8302 C54.923,8.4702 55.362,8.9602 55.923,8.9602 L58.223,8.9602 C58.783,8.9602 59.223,8.4702 59.223,7.8302 C59.223,7.1202 59.743,6.5502 60.373,6.5502 L69.853,6.5502 C70.413,6.5502 70.853,7.0402 70.853,7.6792 L70.853,7.8302 C70.853,8.4702 71.303,8.9602 71.853,8.9602 L74.163,8.9602 C74.713,8.9602 75.163,8.4702 75.163,7.8302 C75.163,7.1202 75.683,6.5502 76.313,6.5502 L80.263,6.5502 C80.543,6.5502 80.763,6.2902 80.763,5.9792 L80.763,5.1702 C80.763,4.8492 80.543,4.5992 80.263,4.5992 L80.263,4.5992 Z M157.223,6.1492 L156.393,2.9792 C156.263,2.5102 155.872,2.1792 155.433,2.1792 L153.213,2.1792 C152.543,2.1792 152.063,2.9202 152.263,3.6392 L153.093,6.7902 C153.223,7.2792 153.612,7.6092 154.053,7.6092 L156.273,7.6092 C156.943,7.6092 157.423,6.8702 157.223,6.1492 L157.223,6.1492 Z M143.353,4.5992 L121.122,4.5992 C120.853,4.5992 120.622,4.8492 120.622,5.1702 L120.622,5.9792 C120.622,6.2902 120.853,6.5502 121.122,6.5502 L143.353,6.5502 C143.633,6.5502 143.853,6.2902 143.853,5.9792 L143.853,5.1702 C143.853,4.8492 143.633,4.5992 143.353,4.5992 L143.353,4.5992 Z" id="Fill-45" fill="#2E7EEE"></path>
            <path d="M165.8879,19.958 L165.4359,26.562 C165.3459,27.033 164.9339,27.374 164.4529,27.374 L162.1839,27.374 C161.5569,27.374 161.0839,26.803 161.2009,26.187 L161.6549,19.583 C161.7439,19.111 162.1569,18.771 162.6359,18.771 L164.9069,18.771 C165.5339,18.771 166.0059,19.342 165.8879,19.958" id="Fill-47" fill="#2E7EEE"></path>
            <path d="M179.883,19.4785 L180.198,26.0825 C180.394,26.7245 179.913,27.3745 179.241,27.3745 L177.027,27.3745 C176.586,27.3745 176.197,27.0855 176.07,26.6655 L175.755,20.0615 C175.559,19.4185 176.039,18.7705 176.711,18.7705 L178.926,18.7705 C179.366,18.7705 179.754,19.0575 179.883,19.4785" id="Fill-49" fill="#2E7EEE"></path>
        </g>
    </g>
</svg>