<svg t="1650856474827" class="icon" viewBox="0 0 1024 1024" version="1.1" xmlns="http://www.w3.org/2000/svg" p-id="3313" width="200" height="200"><path d="M757.76 215.04h184.32s81.92 15.4624 81.92 81.92v307.2s-1.35168 138.3424-184.32 184.32h-81.92v-40.96h81.92s112.13824-9.3184 143.36-143.36V307.2a58.95168 58.95168 0 0 0-61.44-51.2H757.76v-40.96z" p-id="3314"></path><path d="M0 92.16h757.76v737.28a102.4 102.4 0 0 1-102.4 102.4H102.4A102.4 102.4 0 0 1 0 829.44V92.16z" p-id="3315"></path><path d="M61.44 307.2m20.48 0l0 0q20.48 0 20.48 20.48l0 368.64q0 20.48-20.48 20.48l0 0q-20.48 0-20.48-20.48l0-368.64q0-20.48 20.48-20.48Z" fill="#EBBA50" p-id="3316"></path></svg>